HIERARCHY
ROOT Cow_ROOTSHJnt
{
	OFFSET 0.000000 66.749710 104.418190
	CHANNELS 6 Xposition Yposition Zposition Xrotation Yrotation Zrotation
	JOINT Cow_Spine_01SHJnt
	{
		OFFSET 0.000000 -20.599148 -0.645164
		CHANNELS 3 Xrotation Yrotation Zrotation
		JOINT Cow_Spine_02SHJnt
		{
			OFFSET -0.000000 -20.593330 -0.659470
			CHANNELS 3 Xrotation Yrotation Zrotation
			JOINT Cow_Spine_03SHJnt
			{
				OFFSET -0.000000 -20.606550 -0.983307
				CHANNELS 3 Xrotation Yrotation Zrotation
				JOINT Cow_Spine_04SHJnt
				{
					OFFSET -0.000000 -20.599676 1.374176
					CHANNELS 3 Xrotation Yrotation Zrotation
					JOINT Cow_Spine_TopSHJnt
					{
						OFFSET -0.000000 -20.599678 0.913795
						CHANNELS 3 Xrotation Yrotation Zrotation
						JOINT Cow_l_Clavicle_01_01SHJnt
						{
							OFFSET 11.171912 0.000000 0.000000
							CHANNELS 3 Xrotation Yrotation Zrotation
							JOINT Cow_l_FrontLeg_HipSHJnt
							{
								OFFSET 7.976342 -4.953094 -13.093445
								CHANNELS 3 Xrotation Yrotation Zrotation
								JOINT Cow_l_FrontLeg_Knee1SHJnt
								{
									OFFSET 0.000006 -3.929440 -54.085663
									CHANNELS 3 Xrotation Yrotation Zrotation
									JOINT Cow_l_FrontLeg_Knee2SHJnt
									{
										OFFSET 0.000000 1.964958 -22.377888
										CHANNELS 3 Xrotation Yrotation Zrotation
										JOINT Cow_l_FrontLeg_AnkleSHJnt
										{
											OFFSET 0.000000 -0.663105 -5.827117
											CHANNELS 3 Xrotation Yrotation Zrotation
											JOINT Cow_l_FrontLeg_BallSHJnt
											{
												OFFSET 0.000006 -5.970051 -9.033520
												CHANNELS 3 Xrotation Yrotation Zrotation
												JOINT Cow_l_FrontLeg_ToeSHJnt
												{
													OFFSET 0.000006 -7.439106 -0.000235
													CHANNELS 3 Xrotation Yrotation Zrotation
													End Site
													{
														OFFSET 7.439106 0.000004 0.000000
													}
												}
											}
										}
									}
								}
							}
						}
						JOINT Cow_r_Clavicle_01_01SHJnt
						{
							OFFSET -11.171912 0.000000 0.000000
							CHANNELS 3 Xrotation Yrotation Zrotation
							JOINT Cow_r_FrontLeg_HipSHJnt
							{
								OFFSET -7.976342 -4.953094 -13.093445
								CHANNELS 3 Xrotation Yrotation Zrotation
								JOINT Cow_r_FrontLeg_Knee1SHJnt
								{
									OFFSET 0.000006 -3.929440 -54.085663
									CHANNELS 3 Xrotation Yrotation Zrotation
									JOINT Cow_r_FrontLeg_Knee2SHJnt
									{
										OFFSET 0.000000 1.964958 -22.377888
										CHANNELS 3 Xrotation Yrotation Zrotation
										JOINT Cow_r_FrontLeg_AnkleSHJnt
										{
											OFFSET 0.000000 -0.663105 -5.827118
											CHANNELS 3 Xrotation Yrotation Zrotation
											JOINT Cow_r_FrontLeg_BallSHJnt
											{
												OFFSET 0.000006 -5.970051 -9.033520
												CHANNELS 3 Xrotation Yrotation Zrotation
												JOINT Cow_r_FrontLeg_ToeSHJnt
												{
													OFFSET 0.000006 -7.439106 -0.000235
													CHANNELS 3 Xrotation Yrotation Zrotation
													End Site
													{
														OFFSET 7.439106 0.000004 0.000000
													}
												}
											}
										}
									}
								}
							}
						}
						JOINT Cow_Neck_01SHJnt
						{
							OFFSET 0.000000 -25.141075 -3.042923
							CHANNELS 3 Xrotation Yrotation Zrotation
							JOINT Cow_Neck_02SHJnt
							{
								OFFSET -0.000000 -19.440186 5.198975
								CHANNELS 3 Xrotation Yrotation Zrotation
								JOINT Cow_Neck_TopSHJnt
								{
									OFFSET -0.000000 -15.102203 2.823219
									CHANNELS 3 Xrotation Yrotation Zrotation
									JOINT Cow_Head_JawSHJnt
									{
										OFFSET 0.000000 -35.995033 -11.047020
										CHANNELS 3 Xrotation Yrotation Zrotation
										JOINT Cow_Head_JawEndSHJnt
										{
											OFFSET 0.000001 -14.239838 -8.004066
											CHANNELS 3 Xrotation Yrotation Zrotation
											End Site
											{
												OFFSET 0.000001 -14.351303 -7.802444
											}
										}
									}
									JOINT Cow_Head_TopSHJnt
									{
										OFFSET -0.000001 -27.576538 24.239853
										CHANNELS 3 Xrotation Yrotation Zrotation
										JOINT Cow_l_Ear_01_01SHJnt
										{
											OFFSET 14.495198 16.691696 -8.068298
											CHANNELS 3 Xrotation Yrotation Zrotation
											JOINT Cow_l_Ear_01_02SHJnt
											{
												OFFSET 6.722663 2.771584 1.751846
												CHANNELS 3 Xrotation Yrotation Zrotation
												JOINT Cow_l_Ear_01_03SHJnt
												{
													OFFSET 10.716763 -0.206581 1.540665
													CHANNELS 3 Xrotation Yrotation Zrotation
													End Site
													{
														OFFSET 0.679575 -10.457191 -2.729607
													}
												}
											}
										}
										JOINT Cow_r_Ear_01_01SHJnt
										{
											OFFSET -14.495194 16.691696 -8.068306
											CHANNELS 3 Xrotation Yrotation Zrotation
											JOINT Cow_r_Ear_01_02SHJnt
											{
												OFFSET -6.722663 2.771584 1.751839
												CHANNELS 3 Xrotation Yrotation Zrotation
												JOINT Cow_r_Ear_01_03SHJnt
												{
													OFFSET -10.716763 -0.206581 1.540665
													CHANNELS 3 Xrotation Yrotation Zrotation
													End Site
													{
														OFFSET -0.679575 -10.457191 -2.729607
													}
												}
											}
										}
									}
								}
							}
							JOINT Cow_NeckSkin_01_01SHJnt
							{
								OFFSET 0.000001 -3.570503 -28.699036
								CHANNELS 3 Xrotation Yrotation Zrotation
								JOINT Cow_NeckSkin_01_02SHJnt
								{
									OFFSET 0.000001 -3.287460 -13.726460
									CHANNELS 3 Xrotation Yrotation Zrotation
									End Site
									{
										OFFSET 0.000000 -13.726448 3.287464
									}
								}
							}
						}
					}
				}
			}
		}
	}
	JOINT Cow_l_HindLeg_HipSHJnt
	{
		OFFSET 22.626928 3.434624 -17.868790
		CHANNELS 3 Xrotation Yrotation Zrotation
		JOINT Cow_l_HindLeg_Knee1SHJnt
		{
			OFFSET -4.433996 11.629982 -42.020042
			CHANNELS 3 Xrotation Yrotation Zrotation
			JOINT Cow_l_HindLeg_Knee2SHJnt
			{
				OFFSET 0.572979 -5.223473 -32.422234
				CHANNELS 3 Xrotation Yrotation Zrotation
				JOINT Cow_l_HindLeg_AnkleSHJnt
				{
					OFFSET 0.961411 -2.095169 -7.270233
					CHANNELS 3 Xrotation Yrotation Zrotation
					JOINT Cow_l_HindLeg_BallSHJnt
					{
						OFFSET 0.000000 -3.795708 -4.836911
						CHANNELS 3 Xrotation Yrotation Zrotation
						JOINT Cow_l_HindLeg_ToeSHJnt
						{
							OFFSET 0.000000 -6.175804 0.000002
							CHANNELS 3 Xrotation Yrotation Zrotation
							End Site
							{
								OFFSET 6.175808 0.000000 0.000000
							}
						}
					}
				}
			}
		}
	}
	JOINT Cow_r_HindLeg_HipSHJnt
	{
		OFFSET -22.626928 3.434624 -17.868790
		CHANNELS 3 Xrotation Yrotation Zrotation
		JOINT Cow_r_HindLeg_Knee1SHJnt
		{
			OFFSET 4.434002 11.629982 -42.020042
			CHANNELS 3 Xrotation Yrotation Zrotation
			JOINT Cow_r_HindLeg_Knee2SHJnt
			{
				OFFSET -0.572975 -5.223473 -32.422234
				CHANNELS 3 Xrotation Yrotation Zrotation
				JOINT Cow_r_HindLeg_AnkleSHJnt
				{
					OFFSET -0.961411 -2.095169 -7.270234
					CHANNELS 3 Xrotation Yrotation Zrotation
					JOINT Cow_r_HindLeg_BallSHJnt
					{
						OFFSET 0.000000 -3.795708 -4.836910
						CHANNELS 3 Xrotation Yrotation Zrotation
						JOINT Cow_r_HindLeg_ToeSHJnt
						{
							OFFSET 0.000000 -6.175804 0.000002
							CHANNELS 3 Xrotation Yrotation Zrotation
							End Site
							{
								OFFSET 6.175806 0.000000 0.000001
							}
						}
					}
				}
			}
		}
	}
	JOINT Cow_Tail_01_01SHJnt
	{
		OFFSET 0.000000 20.837936 23.982246
		CHANNELS 3 Xrotation Yrotation Zrotation
		JOINT Cow_Tail_01_02SHJnt
		{
			OFFSET -0.000000 7.960037 -11.072281
			CHANNELS 3 Xrotation Yrotation Zrotation
			JOINT Cow_Tail_01_03SHJnt
			{
				OFFSET -0.000000 2.666931 -14.319489
				CHANNELS 3 Xrotation Yrotation Zrotation
				JOINT Cow_Tail_01_04SHJnt
				{
					OFFSET -0.000000 -1.425102 -14.386597
					CHANNELS 3 Xrotation Yrotation Zrotation
					JOINT Cow_Tail_01_05SHJnt
					{
						OFFSET -0.000000 -1.119919 -14.413574
						CHANNELS 3 Xrotation Yrotation Zrotation
						JOINT Cow_Tail_01_06SHJnt
						{
							OFFSET -0.000000 0.772911 -13.741093
							CHANNELS 3 Xrotation Yrotation Zrotation
							JOINT Cow_Tail_01_07SHJnt
							{
								OFFSET -0.000000 3.111671 -14.118168
								CHANNELS 3 Xrotation Yrotation Zrotation
								End Site
								{
									OFFSET -0.000000 14.118164 3.111679
								}
							}
						}
					}
				}
			}
		}
	}
	JOINT Cow_Udder_01_01SHJnt
	{
		OFFSET 0.000000 -7.188259 -41.393276
		CHANNELS 3 Xrotation Yrotation Zrotation
		JOINT Cow_Udder_01_02SHJnt
		{
			OFFSET 0.000001 3.137054 -13.240067
			CHANNELS 3 Xrotation Yrotation Zrotation
			End Site
			{
				OFFSET 0.000001 13.240070 3.137051
			}
		}
	}
}
MOTION
Frames: 6
Frame Time: 0.040000
0.000000 66.749695 104.418182 -0.000000 0.000000 -0.000000 -0.000000 0.000000 -0.000000 -0.000007 -0.000000 0.000003 0.000000 0.000010 -0.000000 0.000000 0.000000 0.000000 0.000000 0.000000 0.000000 -0.000000 0.000000 0.000000 0.000000 -0.000000 -0.000000 0.000000 0.000000 0.000000 0.000000 0.000003 0.000002 -0.000000 0.000003 -0.000000 0.000000 -0.000005 0.000000 0.000000 0.000000 0.000000 -0.000000 0.000000 0.000000 0.000000 -0.000000 -0.000000 0.000000 -0.000000 -0.000000 0.000000 0.000003 0.000002 0.000000 0.000003 -0.000000 0.000000 -0.000005 0.000000 0.000000 -0.000000 0.000000 -0.000000 -0.000002 0.000007 -0.000000 -0.000003 -0.000000 -0.000002 -0.000004 -0.000007 -26.871124 -0.000004 -0.000020 -0.000005 -0.000000 0.000000 -0.000002 0.000009 0.000011 -0.000003 -0.000000 -0.000001 0.000002 -0.000001 -0.000000 0.000001 0.000000 -0.000000 -0.000008 0.000001 0.000003 -0.000001 0.000001 0.000001 -0.000000 0.000000 0.000000 -0.000005 -0.000003 -0.000013 0.000001 0.000007 -0.000002 -0.000003 -0.000001 0.000000 -0.000000 0.000001 0.000002 0.000002 -0.000002 -0.000000 0.000002 -0.000001 0.000001 0.000000 -0.000000 0.000000 0.000000 -0.000000 -0.000000 0.000003 0.000000 -0.000003 0.000001 -0.000001 -0.000000 0.000006 -0.000002 -0.000001 -0.000000 -0.000001 -0.000002 -0.000000 -0.000000 -0.000000 -0.000000 -0.000000 -0.000000 -0.000002 -0.000000 -0.000000 -0.000002 -0.000000 -0.000000 0.000002 0.000000 0.000000 -0.000000 0.000000 0.000000 -0.000001 -0.000000 0.000000 -0.000001 0.000000 -0.000000 0.000001 0.000000 0.000000 0.000000 -0.000000 -0.000000 0.000000 0.000000 0.000000 
0.000000 66.749695 104.418182 -0.000000 0.000000 -0.000000 -0.000000 0.000000 -0.000000 -0.000007 -0.000000 0.000003 0.000000 0.000010 -0.000000 0.000000 0.000000 0.000000 0.000000 0.000000 0.000000 -0.000000 0.000000 0.000000 0.000000 -0.000000 -0.000000 0.000000 0.000000 0.000000 0.000000 0.000003 0.000002 -0.000000 0.000003 -0.000000 0.000000 -0.000005 0.000000 0.000000 0.000000 0.000000 -0.000000 0.000000 0.000000 0.000000 -0.000000 -0.000000 0.000000 -0.000000 -0.000000 0.000000 0.000003 0.000002 0.000000 0.000003 -0.000000 0.000000 -0.000005 0.000000 0.000000 -0.000000 0.000000 -0.000000 -0.000002 0.000007 -0.000000 -0.000003 -0.000000 -0.000002 -0.000004 -0.000007 -26.871124 -0.000004 -0.000020 -0.000005 -0.000000 0.000000 -0.000002 0.000009 0.000011 -0.000003 -0.000000 -0.000001 0.000002 -0.000001 -0.000000 0.000001 0.000000 -0.000000 -0.000008 0.000001 0.000003 -0.000001 0.000001 0.000001 -0.000000 0.000000 0.000000 -0.000005 -0.000003 -0.000013 0.000001 0.000007 -0.000002 -0.000003 -0.000001 0.000000 -0.000000 0.000001 0.000002 0.000002 -0.000002 -0.000000 0.000002 -0.000001 0.000001 0.000000 -0.000000 0.000000 0.000000 -0.000000 -0.000000 0.000003 0.000000 -0.000003 0.000001 -0.000001 -0.000000 0.000006 -0.000002 -0.000001 -0.000000 -0.000001 -0.000002 -0.000000 -0.000000 -0.000000 -0.000000 -0.000000 -0.000000 -0.000002 -0.000000 -0.000000 -0.000002 -0.000000 -0.000000 0.000002 0.000000 0.000000 -0.000000 0.000000 0.000000 -0.000001 -0.000000 0.000000 -0.000001 0.000000 -0.000000 0.000001 0.000000 0.000000 0.000000 -0.000000 -0.000000 0.000000 0.000000 0.000000 
-0.002718 66.714310 102.261292 0.961141 0.000000 -0.000000 -3.344086 -0.001035 -0.000126 4.379205 0.000286 -0.005149 1.395248 0.000010 -0.000007 -0.779675 0.000000 0.000001 -0.715966 0.000000 0.000004 0.000000 -0.000000 -0.000000 -12.040593 -0.002193 0.000376 34.419468 0.000014 -0.000009 -10.119455 0.000205 -0.001357 3.765360 0.001417 -0.000215 -0.000004 -0.000005 0.000000 -0.000000 -0.000000 -0.000000 0.000000 -0.000000 -0.000000 -11.786227 -0.002194 0.000388 34.449681 0.000021 -0.000014 -10.141607 0.000194 -0.001364 3.508194 0.001425 -0.000207 0.000001 -0.000005 0.000000 -0.000001 -0.000000 -0.000000 -1.874072 0.000028 -0.000000 -2.790351 0.000086 -0.000011 -0.276625 0.000004 -0.000001 -22.860858 -0.000005 0.000004 -0.000005 0.000000 -0.000000 -0.000000 0.000009 0.000011 0.378017 -5.326082 0.694033 0.386415 -5.320219 0.641249 0.000000 0.000002 0.000001 5.446266 7.091099 -2.390478 5.535530 7.835185 -2.358422 0.000001 0.000001 0.000001 -0.000001 -0.000003 -0.000004 0.000001 0.000007 -0.000002 3.572724 1.364976 -0.137476 -10.953783 -3.091182 0.007387 6.298848 1.690765 -0.323165 0.095653 -0.014781 0.016924 -0.000000 -0.000000 0.000000 -0.000000 -0.000000 0.000000 3.572468 -1.368792 0.135572 -10.952890 3.090926 -0.007408 6.298133 -1.690946 0.326554 0.095692 0.018759 -0.018085 -0.000000 -0.000000 -0.000000 -0.000000 0.000000 -0.000000 0.748122 0.694162 0.672208 0.750344 0.937934 0.232047 0.752791 0.963982 -0.065565 -2.133785 -1.795338 0.715391 -2.138448 -1.891892 0.404439 -2.142172 -1.917725 0.159347 0.000000 -0.000000 -0.000000 0.000008 0.000010 0.000012 0.000000 0.000000 0.000000 
-0.008841 66.638336 97.442093 2.976020 0.000000 -0.000000 -10.202112 -0.008244 -0.001698 13.174948 0.000102 -0.002078 4.318776 0.000010 -0.000005 -2.424875 -0.000000 0.000000 -2.209414 0.000000 -0.000000 -0.000000 -0.000000 0.000000 -24.784089 -0.008645 -0.000055 67.567612 0.000033 -0.000027 -5.050971 0.004631 -0.007557 11.636957 -0.001244 0.000274 0.000004 -0.000005 0.000000 0.000004 0.000000 -0.000000 -0.000000 -0.000000 0.000000 -24.009351 -0.008674 0.000042 67.547477 0.000027 -0.000033 -5.034827 0.004541 -0.007630 10.865110 -0.001242 0.000262 -0.000003 -0.000005 0.000000 -0.000006 -0.000000 0.000000 -4.685570 0.000026 0.000002 -7.054558 0.000085 -0.000004 -0.663021 0.000001 -0.000002 -14.255620 -0.000006 -0.000014 -0.000003 -0.000000 -0.000000 -0.000000 0.000009 0.000011 1.652746 -14.669276 2.268602 1.636288 -14.640934 2.208889 0.000002 0.000001 0.000001 14.601517 15.337357 -7.853696 14.923280 17.470482 -7.880454 -0.000001 0.000000 -0.000002 0.000001 0.000002 0.000007 0.000001 0.000007 -0.000002 8.694552 3.560051 -0.558583 -28.628847 -7.882186 -1.208100 16.515232 4.307522 -1.309803 0.299398 -0.058635 0.056680 0.000000 -0.000000 -0.000000 -0.000000 0.000000 -0.000000 8.693919 -3.574033 0.553691 -28.626610 7.881608 1.207850 16.513353 -4.308057 1.321354 0.299479 0.072155 -0.060627 0.000000 -0.000000 -0.000000 -0.000000 -0.000000 0.000000 2.126269 1.965775 1.901695 2.143820 2.655080 0.655226 2.163454 2.728231 -0.187697 -6.135018 -4.957429 2.169407 -6.169756 -5.256548 1.302528 -6.198939 -5.356055 0.625042 0.000001 -0.000003 0.000001 0.000011 0.000003 0.000004 0.000001 0.000000 0.000000 
-0.016269 66.562927 91.670441 5.079797 0.000000 -0.000000 -16.420782 -0.004726 -0.001394 21.418522 0.000020 -0.000792 7.367039 0.000010 -0.000001 -4.165416 -0.000000 -0.000003 -3.751884 0.000000 -0.000001 0.000001 0.000000 -0.000000 -32.725977 -0.019370 -0.001760 92.066545 0.000035 -0.000050 5.456144 0.013107 -0.018073 18.870279 -0.013967 0.003995 0.000000 -0.000005 0.000000 0.000000 -0.000000 0.000000 0.000001 0.000000 -0.000000 -31.658938 -0.019462 -0.001444 91.959324 0.000024 -0.000049 5.551895 0.012766 -0.018247 17.816122 -0.013967 0.003853 0.000000 -0.000005 0.000000 0.000000 -0.000000 -0.000000 -5.937154 -0.000000 0.000002 -8.990221 -0.000000 0.000001 -0.821790 -0.000002 -0.000002 -5.712845 -0.000007 -0.000004 -0.000003 -0.000000 0.000000 -0.000002 0.000009 0.000011 2.946492 -20.374748 3.646728 2.915947 -20.379746 3.644087 0.000004 -0.000002 -0.000001 17.890801 13.643193 -9.495705 17.966439 17.193591 -7.837672 0.000005 0.000002 0.000002 0.000001 -0.000001 -0.000007 0.000002 0.000007 -0.000002 12.938100 5.549850 -1.158638 -44.917254 -11.712075 -3.557350 25.986068 6.527418 -2.713945 0.508953 -0.138264 0.107878 0.000000 -0.000000 -0.000000 -0.000000 0.000000 0.000000 12.937251 -5.578507 1.152017 -44.915225 11.711647 3.556997 26.000136 -6.530772 2.737363 0.508998 0.164665 -0.115624 -0.000000 -0.000000 -0.000000 -0.000000 0.000000 -0.000000 3.151948 2.847838 2.753240 3.188698 3.845503 0.947352 3.229942 3.950802 -0.274388 -9.000530 -6.799752 3.618766 -9.059226 -7.317951 2.406727 -9.112103 -7.547639 1.476649 -0.000002 -0.000001 -0.000000 0.000002 -0.000000 0.000000 0.000000 0.000000 0.000000 
-0.022873 66.522026 86.652466 6.311287 0.014114 0.005836 -19.590238 0.005256 -0.012027 25.735130 0.000930 0.009025 9.151875 0.000359 0.008876 -5.198383 0.000772 0.008924 -4.661791 0.000668 -0.013369 0.000000 0.000000 0.000000 -34.565808 -0.032592 -0.014092 107.515305 0.000034 -0.000044 7.996867 0.033789 -0.046271 21.694182 -0.040506 0.012851 0.000000 -0.000005 0.000000 -0.000001 -0.000000 -0.000000 0.000000 0.000000 0.000000 -34.269371 -0.034175 -0.011800 107.468280 0.000021 -0.000058 8.040683 0.022289 -0.038854 21.388906 -0.034121 0.010607 -0.000001 -0.000005 -0.000000 -0.000002 0.000000 0.000000 -6.094999 0.008681 0.000567 -9.234798 0.007841 -0.003494 -0.859480 -0.004156 -0.017099 -0.842734 -0.000000 0.000003 -0.000007 -0.000000 -0.000000 -0.000007 0.000009 0.000011 2.058815 -17.358431 3.880175 2.396504 -17.163483 3.677907 0.000002 0.000001 0.000001 15.905670 3.035576 -5.460633 15.562881 8.092240 -1.039594 0.000004 -0.000003 0.000001 -0.000004 -0.000430 -0.001791 0.000002 0.000007 -0.000002 16.259815 6.954602 -1.734287 -57.189352 -14.035028 -5.976519 33.204224 8.065416 -4.058486 0.590979 -0.250134 0.151710 -0.000000 -0.000000 0.000000 -0.000000 -0.000000 0.000000 16.253977 -7.032595 1.731017 -57.172822 14.032273 5.972948 32.931672 -8.028579 4.069417 0.588163 0.296824 -0.165031 -0.000000 -0.000000 -0.000000 0.000000 0.000000 0.000000 3.438046 2.659968 2.494635 3.471179 3.553252 0.818503 3.506292 3.633221 -0.307417 -9.785756 -4.321687 4.683514 -9.623371 -5.053060 3.846070 -9.472944 -5.547049 3.256700 0.000001 -0.000001 0.000002 -0.000009 -0.008958 -0.001727 -0.000001 -0.000000 -0.000000 
